/* XPM */
static char *_e876c6549e445c0e7a98e0af0e24829fXpDeK6H9mMhEHeo[] = {
/* columns rows colors chars-per-pixel */
"64 64 16 1 ",
"  c #202020",
". c #2C2C2C",
"X c gray22",
"o c #484848",
"O c gray33",
"+ c gray36",
"@ c #646464",
"# c gray44",
"$ c #7C7C7C",
"% c gray55",
"& c #989898",
"* c gray66",
"= c #B4B4B4",
"- c #C0C0C0",
"; c #D0D0D0",
": c gainsboro",
/* pixels */
"XXXXXXXXXXXXXXXXXXXXXXXXXXXXXXXXXXXXXXXXXXXXXXXXXXXXXXXXXXXXXXXX",
"O%%&&&**===-;;;:::::::;;;;--==**&&&&&%%%%%$$$$####@@###$$$$%%%%X",
"@%%&&&&*===----;::::::;;;;--==***&&&&%%%%%$$$$####@@####$$$$%%%X",
"@%@&%%&****@&--;:::::@&::;----=@&*&&&%%%%@&$$$$####O&@@#$$$$@&%X",
"@%o@%%&****o@--;;;:::o@::;;;--=o@**&&&%%%o@%%$$####oO@@#$$$$o@%X",
"#$%%%%&&***=----;;:::::::;;;--==***&&&%%%%%%%$$$###@@@@####$$$%X",
"#$%%%%%&&&&*===-;;;;::::::;;----=**&&&%%%%%%%%$$$$###@@@####$$$X",
"#$%%%%%&&&&*===-;;;;::::::::;;--===**&&&&%%%%%$$$$###@@@####$$$X",
"#$$%%%%&&&&*====--;;::::::::;;--===**&&&&%%%%%$$$$###@@@@@@#$$$X",
"##$%%%%%&&OOOOOOOOOOOOOOOOOOOOoooooooooooooooooXXXXXXX#@@@@###$X",
"##$$$$%%&&OoooooooooooooooooooXXXXXXXXXXXXXXXXX......&#@@@@###$X",
"##$$$$%%&&Oo;::::::;----==**&&&&&%%%$$$$$$$###@@OOOO&=###@@@##$X",
"##@&$$$%%%Oo;:::::::;;;-====**&&&%%%%%%$$$$$##@@@OOO&=###@@@@&#X",
"#@o@$$$%%%Oo;:::::::;;;;--==**&&&&&%%%%%$$$$####@@@O&=$###@@o@#o",
"#@#$$$$%%%Oo-;::::::;;;;--==**&&&&&%%%%%$$$$####@@@O&=$###@@@@#o",
"#@####$$%%Oo-;;::::::::;----==*&&&&%%%%%$$$$$$###@@O&=$###@@@@#o",
"#@@###$$%%Oo-;;;:::::::;;;--==***&&&%%%%%%%$$$###@@@%*$$$####@@o",
"#@@###$$%%Oo--;;:::::::;;;--==***&&&%%%%%%%$$$###@@@%*$$$####@@o",
"#@@####$$$Oo=-;;;;::::::;;----=**&&&%%%%%%%%$$$$###@%*$$$####@@o",
"#@@@@@##$$Oo=-;;;;::::::::;;--===**&&&&%%%%%$$$$###@%*$$$$####@o",
"#@@@@@##$$Oo==--;;::::::::;;--===**&&&&%%%%%$$$$###@%*%$$$$$$#@o",
"##O&@@@#$$Oo*=----;:::::::;;;;-==**&&&&%%%%%%%$$$###%*%$$$$$@&@o",
"##oO@@@###Oo**==--;:::::::::;;-====*&&&&%%%%%%$$$###%*%%%$$$o@#o",
"####@@@@##Oo**==--;:::::::::;;;--==*&&&&&&&%%%%%$$$#%*%%%$$$$$#o",
"####@@@@##Oo**==---;;:::::::;;;--==*&&&&&&&%%%%%$$$#%*%%%%$$$$#o",
"#$###@@@##Oo****==-;;;;:::::::;----=***&&&&%%%%%$$$$%*%%%%$$$$#o",
"#$###@@@@@Oo&***==-;;;;:::::::;;;--=****&&&&%%%%%$$$%*&%%%$$$$$o",
"@$###@@@@@Oo&&&*===--;;:::::::;;;--=****&&&&%%%%%$$$%*&%%%%%%$$o",
"@$$$###@@@Oo&&&***=--;;;;::::::;;---===*&&&&&&%%%$$$%*&%%%%%%$$o",
"@$$$#.XXo@Oo%&&&**=--;;;;::::::::;;-===****&&&%%%%%$%*&&&%%%%%$o",
"@$$$# .Xo@Oo%%&&**===--;;;:::::::;;-===****&&&%%%%%$%*&&&%%%%%$o",
"@%@&$ .XO@Oo%%%&&**==----;:::::::;;;---=***&&&&&%%%$%*&&&%%%@&$o",
"@%o@$ .XO@Oo$%%&&**==----;:::::::::;---====*&&&&%%%%%**&&&%%o@%o",
"@%%%$ .XO#oX$%%&&****==--;;;;::::::;---====*&&&&%%%%%**&&&%%%%%o",
"@%%%$ .XO#oX$%%%&&***==---;;;::::::;;;;-===*&&&&&%%%%**&&&%%%%%o",
"@%%%$ .X+#oX$$%%&&&&&**==-;;;;::::::;;;----=**&&&&&%%****&&&&%%o",
"@%%%% .X+#oX$$%%%&&&&**==-;;;;::::::;;;;---=****&&&%%*=**&&&&%%o",
"@%%%%  .+#oX$$$%%&&&&**===---;::::::;;;;---=****&&&%%*===*&&&&%o",
"@&%%%$+++$oX$$$%%%%&&&&**=---;;;;::::::;;;;-==**&&&&%*===*&&&&%o",
"@&%%%%%$$$oX#$$$$%%&&&&**=---;;;;:::::::;;;-====*&&&%*-==*&&&&&o",
"@&%%%%%$$$oX#$$$$%%&&&&***===-;;;;::::::;;;-====*&&&%*---=***&&o",
"@&@&%%%$$$oX##$$$$%%%&&&&*===----;::::::;;;;--==*&&&%*---=**@&&o",
"@&o@%%%%%$oX##$$$$%%%&&&&*===----;:::::::::;--===**&%*;--=**o@&o",
"O&&&%%%%%$oX@#$$$$%%%&&&&&***=---;;::::::::;--===**&&*;---===*&o",
"O&&&&%%%%%oX@###$$$%%%%&&&***=----;::::::::;;;--=***&=;---===*&o",
"O*&&&&&%%%oX@###$$$%%%%&&&***=----;:::::::::;;---==*&=;;;-===**o",
"O***&&&%%%oX@@##$$$%%%%&&&&&&*===-;;;;::::::;;---==*&=:;;;---=*o",
"O***&&&%%%oX@@####$$$%%%%&&&&*====-;;;::::::;;;;-==*&=:;;;---=*o",
"O=**&&&&&%oXO@@@##$$$%%%%%&&&&***=----;:::::::;;;--=&=:::;---==o",
"O===*&&&&%oXO@@@##$$$%%%%%&&&&***=----;:::::::::;--=&=:::;;;;-=o",
"O=@&*&&&&%XXOO@@###$$$$%%%&&&&****=---;;;:::::::;--=&=::::;;@&-o",
"O-o@*&&&&&XXOO@@@@###$$%%%%%%&&&&*=----;;:::::::;;;-&=::::;;o@-o",
"O-===**&&&XXOO@@@@###$$%%%%%%&&&&*=----;;::::::::;;-&=:::::::;-o",
"O-===**&&&XX%&&&&&&&&&&&&&&&&&&%%%%%%%%%%%%%%%%&&&&&&=:::::::;-o",
"O;--=****&X&==================****************========:::::::;-o",
"O;---==**&&&%%%%%%%%$$$$###@@@@####$$%%%%&&&&***===-;:::::::::;o",
"O;---==**&&&%%%%%%%%$$$$###@@@@####$$%%%%&&&&***===-;:::::::::;o",
"O;;;-==****&&&&%%%%%$$$$###@@@@@####$%%%%%%&&&&*===--;;;::::::;o",
"O:;;;--==**&&&&%%%%%%$$$$####@@@####$$$$%%%&&&&****=-;;;;::::::o",
"O:@&;--====@&&&&%%%%%@&$$####@@O&@@##$$$$@&%%&&&***@&---;:::@&:o",
"O:o@;--====o@&&&&&%%%o@$$####@@oO@@##$$$$o@%%&&&&**o@---;:::o@:o",
"O:::;;;--==*&&&&&&&%%%%%$$$####@@@@@#$$$$%%%%&&&&&&*=---;;;;:::o",
"O::::;;----=***&&&&%%%%%$$$$$###@@@@####$$$%%%%&&&&*====-;;::::o",
"XXXXXXXXXXXXXXXXXXXXXXXXXXXXXXXXXXXXXXXXXXXXXXXXXXXXXXXXXXXXXXXX"
};
